# xmcd CD database file
#
# Track frame offsets:
#	150
#	12862
#	41862
#	73097
#	118782
#	139235
#	163165
#	182667
#	221882
#
# Disc length: 3236 seconds
#
# Revision: 2
# Processed by: cddbd v1.5.2PL0 Copyright (c) Steve Scherf et al.
# Submitted via: CDex 1.70beta2
#
DISCID=8b0ca209
DTITLE=Rryu - In Her Sanctuary
DYEAR=1997
DGENRE=New Age
TTITLE0=Good Morning Angel Of Light
TTITLE1=Rays In A Peaceful Shade
TTITLE2=On Her Beach, She Loves Life
TTITLE3=You Are Here Openhearted
TTITLE4=Opendoor Between The Living and The Dead
TTITLE5=Reefer's Dreamtime In A Starry Dark
TTITLE6=Pleiades, Where Are U Tonight?
TTITLE7=Down By The Findhorn Riverside
TTITLE8=Read Your Own Christmas Book
EXTD=YEAR: 1997
EXTT0=
EXTT1=
EXTT2=
EXTT3=
EXTT4=
EXTT5=
EXTT6=
EXTT7=
EXTT8=
PLAYORDER=
